<svg width="150" height="150" viewBox="0 0 150 150" fill="none" xmlns="http://www.w3.org/2000/svg">
<path d="M131.505 103.354C131.505 109.226 130.384 114.734 128.141 119.88C125.898 125.026 122.83 129.545 118.938 133.438C115.111 137.264 110.625 140.299 105.479 142.542C100.333 144.785 94.8247 145.906 88.9531 145.906H18V4H88.9531C94.8247 4 100.333 5.12153 105.479 7.36458C110.625 9.60764 115.111 12.6753 118.938 16.5677C122.83 20.3941 125.898 24.8802 128.141 30.026C130.384 35.1719 131.505 40.6806 131.505 46.5521C131.505 49.191 131.142 51.8958 130.417 54.6667C129.691 57.4375 128.668 60.1094 127.349 62.6823C126.03 65.2552 124.446 67.5972 122.599 69.7083C120.752 71.8194 118.707 73.5677 116.464 74.9531C118.773 76.2066 120.851 77.9219 122.698 80.099C124.545 82.2101 126.128 84.5521 127.448 87.125C128.767 89.6979 129.757 92.4028 130.417 95.2396C131.142 98.0104 131.505 100.715 131.505 103.354ZM46.401 117.505H88.9531C90.9323 117.505 92.7795 117.142 94.4948 116.417C96.2101 115.691 97.6944 114.701 98.9479 113.448C100.267 112.128 101.29 110.611 102.016 108.896C102.741 107.181 103.104 105.333 103.104 103.354C103.104 101.375 102.741 99.5278 102.016 97.8125C101.29 96.0972 100.267 94.6128 98.9479 93.3594C97.6944 92.0399 96.2101 91.0174 94.4948 90.2917C92.7795 89.566 90.9323 89.2031 88.9531 89.2031H46.401V117.505ZM46.401 60.8021H88.9531C90.9323 60.8021 92.7795 60.4392 94.4948 59.7135C96.2101 58.9878 97.6944 57.9983 98.9479 56.7448C100.267 55.4253 101.29 53.908 102.016 52.1927C102.741 50.4115 103.104 48.5313 103.104 46.5521C103.104 44.5729 102.741 42.7257 102.016 41.0104C101.29 39.2951 100.267 37.8108 98.9479 36.5573C97.6944 35.2378 96.2101 34.2153 94.4948 33.4896C92.7795 32.7639 90.9323 32.401 88.9531 32.401H46.401V60.8021Z" fill="#C084FC"/>
</svg>
